# xmcd CD database file generated by OrangeCD 6.3
#
# Track frame offsets:
#	150
#	19371
#	39986
#	58078
#	80805
#	102261
#	123019
#	138313
#	153129
#	178313
#	210592
#	229647
#	244892
#	273749
#	291810
#
# Disc length: 4194 seconds
#
# Revision: 1
# Processed by: cddbd v1.5.2PL0 Copyright (c) Steve Scherf et al.
# Submitted via: OrangeCD 6.3
#
DISCID=d510600f
DTITLE=JT Lauritsen and The Buckshot Hunters - Live
DYEAR=2009
DGENRE=Blues
TTITLE0=What Am I Living For
TTITLE1=The Bug
TTITLE2=Big Boss Man
TTITLE3=Sex Appeal
TTITLE4=Got You On My Mind
TTITLE5=Broken Circle
TTITLE6=Red Hot
TTITLE7=Harrys Place
TTITLE8=Dance With Me Babe
TTITLE9=Polka/Buenos Noches From A Lonely Room
TTITLE10=Is It Love
TTITLE11=Make A Better World
TTITLE12=Bald Headed Woman
TTITLE13=I Just Love You Like I Said
TTITLE14=That's How I Got To Memphis
EXTD=
EXTT0=
EXTT1=
EXTT2=
EXTT3=
EXTT4=
EXTT5=
EXTT6=
EXTT7=
EXTT8=
EXTT9=
EXTT10=
EXTT11=
EXTT12=
EXTT13=
EXTT14=
PLAYORDER=
